<?xml version="1.0" standalone="no"?>
<!DOCTYPE svg PUBLIC "-//W3C//DTD SVG 20010904//EN"
 "http://www.w3.org/TR/2001/REC-SVG-20010904/DTD/svg10.dtd">
<svg version="1.0" xmlns="http://www.w3.org/2000/svg"
 width="500.000000pt" height="500.000000pt" viewBox="0 0 500.000000 500.000000"
 preserveAspectRatio="xMidYMid meet">

<g transform="translate(0.000000,500.000000) scale(0.100000,-0.100000)"
fill="#000000" stroke="none">
<path d="M2414 4834 c-383 -471 -734 -1014 -999 -1549 -315 -636 -465 -1163
-465 -1633 0 -464 151 -837 465 -1147 333 -329 784 -485 1257 -434 623 67
1164 534 1322 1142 39 149 49 243 43 410 -4 136 -8 163 -36 250 -74 229 -182
416 -475 825 -438 611 -523 739 -662 988 -223 398 -338 760 -362 1138 l-7 109
-81 -99z m94 -832 c84 -416 253 -716 781 -1392 142 -182 244 -321 292 -397 35
-55 14 -37 -31 28 -69 98 -188 239 -388 458 -357 391 -507 576 -638 783 -77
122 -153 273 -192 382 l-29 78 -25 -43 c-127 -221 -323 -613 -428 -859 -313
-732 -417 -1316 -304 -1710 112 -388 441 -690 843 -775 524 -110 1073 181
1277 678 15 37 29 65 31 63 7 -6 -64 -174 -101 -241 -117 -208 -330 -412 -542
-518 -81 -41 -327 -136 -412 -159 -65 -19 -104 -22 -257 -22 -164 0 -189 2
-280 27 -251 67 -496 237 -644 444 -71 99 -189 335 -231 463 -41 122 -58 217
-69 379 -31 462 103 1001 394 1590 204 413 436 765 781 1186 l139 170 6 -255
c5 -200 11 -277 27 -358z m-212 -1119 c68 -23 142 -99 179 -185 27 -61 32 -68
58 -68 72 0 127 -55 127 -127 0 -34 -20 -78 -42 -94 -4 -3 95 -231 222 -508
126 -277 230 -514 230 -528 0 -38 -60 -505 -66 -515 -3 -4 -11 -8 -17 -8 -7 0
-111 66 -232 147 l-220 148 -230 503 c-207 453 -231 502 -252 502 -37 0 -88
25 -111 55 -30 38 -29 101 2 147 l23 35 -27 61 c-48 103 -54 175 -24 266 22
64 101 146 164 169 60 21 155 21 216 0z m1324 -733 c6 -11 8 -20 6 -20 -3 0
-10 9 -16 20 -6 11 -8 20 -6 20 3 0 10 -9 16 -20z m107 -762 c-3 -8 -6 -5 -6
6 -1 11 2 17 5 13 3 -3 4 -12 1 -19z m-20 -70 c-3 -8 -6 -5 -6 6 -1 11 2 17 5
13 3 -3 4 -12 1 -19z"/>
<path d="M2072 2834 c-128 -64 -170 -210 -103 -358 17 -39 33 -71 34 -73 3 -3
457 203 464 211 6 6 -54 126 -81 161 -40 51 -117 85 -196 85 -51 0 -78 -6
-118 -26z"/>
<path d="M2246 2469 c-142 -65 -265 -127 -272 -136 -18 -24 -17 -84 1 -110 9
-12 31 -25 49 -28 28 -6 72 11 296 114 145 66 271 128 282 137 12 12 18 31 18
60 0 34 -5 47 -26 63 -15 12 -41 21 -58 20 -17 0 -146 -53 -290 -120z"/>
<path d="M2345 2279 c-121 -56 -223 -104 -227 -108 -12 -11 440 -986 455 -983
12 2 448 200 454 206 4 4 -446 981 -454 983 -4 1 -107 -43 -228 -98z m252
-131 c18 -24 133 -284 133 -301 0 -9 -6 -17 -14 -17 -15 0 -159 307 -150 321
7 13 20 11 31 -3z m229 -495 c31 -67 42 -99 34 -107 -15 -15 -30 6 -74 101
-35 77 -39 103 -15 103 6 0 30 -43 55 -97z"/>
<path d="M2812 1252 c-116 -53 -212 -99 -212 -102 0 -3 84 -60 186 -128 118
-78 186 -118 189 -110 6 19 56 430 53 434 -2 1 -99 -41 -216 -94z"/>
</g>
</svg>
