<?xml version="1.0" standalone="no"?>
<!DOCTYPE svg PUBLIC "-//W3C//DTD SVG 20010904//EN"
 "http://www.w3.org/TR/2001/REC-SVG-20010904/DTD/svg10.dtd">
<svg version="1.0" xmlns="http://www.w3.org/2000/svg"
 width="500.000000pt" height="500.000000pt" viewBox="0 0 500.000000 500.000000"
 preserveAspectRatio="xMidYMid meet">

<g transform="translate(0.000000,500.000000) scale(0.100000,-0.100000)"
fill="#000000" stroke="none">
<path d="M2433 4708 c-184 -225 -256 -318 -364 -473 -396 -564 -690 -1149
-844 -1680 -117 -405 -159 -775 -125 -1116 69 -690 609 -1248 1298 -1340 119
-16 361 -6 490 20 440 90 811 374 1017 778 42 83 89 203 82 209 -2 2 -20 -37
-41 -86 -80 -190 -248 -399 -422 -527 -147 -108 -327 -188 -516 -230 -64 -14
-124 -18 -263 -17 -168 1 -188 3 -297 32 -520 136 -883 543 -957 1072 -6 36
-8 142 -6 235 9 441 148 956 436 1618 119 272 464 937 479 920 4 -4 17 -37 30
-73 52 -148 156 -345 272 -519 136 -202 286 -383 634 -766 319 -352 446 -503
523 -623 18 -28 35 -52 38 -52 6 0 0 9 -80 130 -79 119 -118 170 -374 499
-514 659 -713 1021 -809 1471 -24 114 -27 150 -31 413 -3 158 -9 287 -13 287
-4 0 -75 -82 -157 -182z"/>
<path d="M3218 2748 c8 -197 -48 -381 -163 -543 -49 -69 -160 -179 -223 -220
l-43 -29 -71 39 c-59 31 -84 39 -143 43 -130 8 -245 -46 -315 -150 -38 -56
-43 -57 -156 -28 -92 24 -207 76 -277 126 l-50 36 7 -39 c17 -92 86 -262 137
-334 17 -25 17 -26 -12 -84 -20 -39 -29 -73 -29 -104 l0 -47 -45 -12 c-90 -24
-158 -88 -191 -179 -42 -119 15 -260 134 -331 41 -23 57 -27 127 -27 48 1 90
6 104 14 23 13 26 12 40 -10 29 -46 99 -107 156 -135 47 -22 76 -29 146 -32
97 -5 161 11 226 55 l38 25 50 -28 c44 -26 60 -29 135 -29 98 0 141 17 205 83
l39 40 43 -29 c61 -42 104 -58 181 -68 235 -30 447 129 483 363 21 131 -25
268 -122 365 -58 58 -153 109 -219 118 l-39 6 30 44 c148 215 190 516 107 773
-24 76 -68 167 -111 230 -30 45 -165 190 -176 190 -3 0 -4 -42 -3 -92z m151
-440 l-12 -23 22 19 c21 19 22 19 15 1 -6 -15 -4 -17 11 -11 18 7 18 6 0 -14
-10 -11 -30 -20 -45 -20 -15 0 -41 -7 -56 -15 -38 -19 -60 -19 -110 4 -51 23
-68 46 -20 26 20 -8 48 -15 63 -15 34 0 103 31 122 53 19 24 24 21 10 -5z
m-311 -280 c-3 -7 -13 -13 -23 -13 -10 0 -20 6 -22 13 -3 7 5 12 22 12 17 0
25 -5 23 -12z m-371 -51 c28 -15 54 -31 57 -36 11 -17 -146 -74 -262 -97 -89
-17 -212 -19 -212 -3 0 19 57 84 99 113 90 63 221 72 318 23z m-567 -537 c6 0
31 13 55 30 91 63 207 72 311 25 56 -25 126 -91 145 -136 l12 -29 48 45 c27
26 66 53 87 62 51 21 136 31 186 22 35 -6 44 -4 66 16 50 48 137 65 214 44 36
-10 40 -9 72 22 29 28 37 31 77 27 109 -13 235 -105 287 -211 39 -80 50 -152
38 -241 -18 -129 -97 -238 -215 -296 -57 -29 -82 -35 -153 -38 -105 -5 -169
12 -251 68 -32 22 -62 40 -66 40 -5 0 -19 -16 -32 -35 -29 -43 -102 -92 -148
-101 -51 -10 -131 3 -166 25 -71 45 -71 45 -116 13 -65 -48 -131 -65 -220 -60
-94 6 -154 31 -221 94 -27 26 -50 50 -50 54 0 4 21 5 48 2 69 -6 163 22 148
46 -4 7 -22 5 -53 -5 -96 -29 -202 6 -258 86 -30 45 -45 52 -45 21 0 -11 20
-41 45 -67 50 -52 48 -58 -22 -69 -230 -35 -378 263 -206 417 50 45 63 52 116
64 l52 11 6 65 c5 58 17 95 40 125 6 7 34 -13 84 -62 41 -41 80 -74 85 -74z"/>
<path d="M3166 1305 c-80 -28 -166 -148 -166 -230 0 -45 28 -29 35 20 15 95
98 180 191 193 59 9 72 32 17 32 -21 -1 -56 -7 -77 -15z"/>
<path d="M2303 2763 c-7 -3 -13 -9 -13 -14 0 -6 5 -7 10 -4 6 4 24 -1 42 -9
17 -9 42 -16 55 -16 12 0 23 -3 23 -8 0 -4 -29 -51 -64 -105 -35 -54 -57 -92
-50 -86 12 9 30 9 83 -1 38 -7 77 -9 88 -5 17 8 17 8 -2 12 -26 5 -95 35 -95
41 0 2 23 43 52 91 28 47 53 90 56 94 2 5 -6 4 -18 -3 -16 -9 -33 -9 -68 -1
-68 16 -86 19 -99 14z"/>
<path d="M2496 2471 c-5 -8 7 -13 80 -29 l32 -7 -53 -87 c-29 -48 -46 -84 -36
-79 9 5 40 5 74 -1 42 -7 62 -7 70 1 8 8 4 11 -15 11 -15 0 -30 5 -33 10 -3 6
-15 10 -26 10 -10 0 -19 1 -19 3 0 2 20 41 45 87 25 46 45 85 45 87 0 2 -9 -1
-21 -7 -15 -8 -34 -8 -70 -1 -61 13 -66 13 -73 2z"/>
<path d="M2782 2275 c3 -4 23 -12 42 -19 l36 -12 -39 -56 -39 -56 52 -5 c28
-3 53 -2 56 1 3 4 4 6 2 5 -2 -1 -17 3 -33 9 l-29 10 30 53 c34 60 35 62 18
62 -7 0 -33 3 -58 8 -25 4 -42 4 -38 0z"/>
<path d="M4021 1234 c0 -11 3 -14 6 -6 3 7 2 16 -1 19 -3 4 -6 -2 -5 -13z"/>
<path d="M4011 1194 c0 -11 3 -14 6 -6 3 7 2 16 -1 19 -3 4 -6 -2 -5 -13z"/>
</g>
</svg>
