<?xml version="1.0" standalone="no"?>
<!DOCTYPE svg PUBLIC "-//W3C//DTD SVG 20010904//EN"
 "http://www.w3.org/TR/2001/REC-SVG-20010904/DTD/svg10.dtd">
<svg version="1.0" xmlns="http://www.w3.org/2000/svg"
 width="500.000000pt" height="500.000000pt" viewBox="0 0 500.000000 500.000000"
 preserveAspectRatio="xMidYMid meet">

<g transform="translate(0.000000,500.000000) scale(0.100000,-0.100000)"
fill="#000000" stroke="none">
<path d="M2414 4834 c-383 -471 -734 -1014 -999 -1549 -233 -470 -366 -855
-437 -1260 -19 -112 -23 -164 -22 -375 0 -214 3 -257 22 -343 109 -493 409
-880 845 -1092 579 -281 1276 -171 1740 274 303 291 476 679 478 1075 1 72 -4
159 -10 194 -18 96 -77 256 -133 362 -59 111 -160 280 -168 280 -3 0 -31 -52
-63 -115 -48 -98 -56 -119 -47 -138 10 -20 10 -21 -4 -4 -13 17 -18 11 -65
-80 l-52 -98 13 -80 c68 -426 -143 -841 -527 -1032 -185 -93 -419 -128 -586
-89 -231 54 -401 226 -402 407 0 70 24 115 98 182 95 85 123 174 91 294 -29
109 -88 162 -223 202 -91 27 -135 64 -163 137 -79 214 77 493 344 614 76 35
191 65 306 80 230 31 514 -49 702 -198 75 -60 166 -155 196 -205 9 -15 20 -26
24 -25 4 2 25 27 47 57 l40 54 -73 86 c-41 47 -156 176 -256 286 -486 532
-682 809 -798 1129 l-29 78 -25 -43 c-127 -220 -322 -611 -428 -859 -312 -726
-417 -1316 -304 -1710 148 -512 661 -852 1193 -791 414 49 772 316 927 694 15
37 29 65 31 63 7 -6 -64 -174 -101 -241 -117 -208 -330 -412 -542 -518 -81
-41 -328 -136 -412 -159 -65 -18 -105 -22 -257 -22 -164 0 -189 2 -278 27
-118 31 -276 106 -372 174 -181 130 -294 269 -407 503 -116 240 -151 368 -167
609 -31 462 103 1001 394 1590 204 413 436 765 781 1186 l139 170 6 -255 c5
-200 11 -277 27 -358 73 -359 238 -681 585 -1137 209 -275 369 -480 376 -482
3 -1 38 41 77 94 l71 96 -105 146 c-357 494 -445 623 -567 826 -274 454 -418
870 -443 1274 l-7 114 -81 -99z m1313 -3446 c-3 -8 -6 -5 -6 6 -1 11 2 17 5
13 3 -3 4 -12 1 -19z m-20 -70 c-3 -8 -6 -5 -6 6 -1 11 2 17 5 13 3 -3 4 -12
1 -19z"/>
<path d="M2416 2620 c-334 -53 -560 -247 -574 -492 -8 -134 34 -201 142 -227
99 -24 194 -90 230 -160 26 -49 49 -170 42 -220 -10 -73 -51 -145 -116 -204
-70 -63 -95 -113 -86 -174 19 -138 160 -272 336 -319 85 -23 251 -23 345 0
400 96 676 395 726 786 12 90 4 264 -11 255 -4 -2 -36 -55 -70 -117 -35 -62
-89 -157 -122 -210 -44 -75 -58 -106 -58 -137 0 -21 -9 -67 -20 -102 -39 -126
-128 -221 -265 -284 -104 -49 -129 -52 -160 -21 -30 31 -31 40 -4 102 17 38
23 77 29 198 7 164 15 192 74 254 17 19 43 40 57 47 16 9 67 76 124 162 54 81
143 213 198 292 l100 144 -18 33 c-26 49 -137 167 -208 220 -81 61 -222 129
-322 154 -92 24 -279 34 -369 20z m262 -170 c68 -42 93 -137 53 -210 -20 -38
-89 -80 -130 -80 -37 1 -106 34 -125 61 -27 39 -38 94 -27 137 10 36 60 94 91
105 35 13 106 6 138 -13z m-428 -130 c51 -26 90 -91 90 -150 0 -152 -174 -236
-287 -137 -157 138 10 382 197 287z m837 -8 c48 -26 72 -101 50 -153 -47 -110
-192 -119 -241 -15 -20 42 -20 67 -2 109 32 76 114 101 193 59z m-558 -990
c49 -36 66 -70 66 -130 0 -96 -58 -152 -158 -152 -129 0 -194 161 -104 259 49
53 141 64 196 23z"/>
<path d="M2564 2411 c-30 -13 -64 -59 -64 -88 0 -54 48 -103 100 -103 57 0
107 63 95 119 -12 55 -81 93 -131 72z"/>
<path d="M2140 2284 c-64 -22 -90 -57 -90 -125 0 -33 6 -47 34 -75 28 -28 42
-34 76 -34 78 0 125 49 122 126 -2 56 -39 96 -97 107 -16 3 -37 3 -45 1z"/>
<path d="M2965 2255 c-50 -49 -20 -125 49 -125 25 0 40 7 55 26 34 43 26 86
-20 109 -39 21 -56 19 -84 -10z"/>
<path d="M2379 1261 c-31 -32 -39 -84 -18 -123 17 -32 74 -51 115 -38 70 23
88 108 35 161 -41 40 -91 40 -132 0z"/>
<path d="M3618 2478 c-64 -80 -108 -141 -108 -150 0 -5 14 -30 32 -55 l31 -46
59 117 59 118 -19 30 -19 30 -35 -44z"/>
<path d="M3439 2239 c-62 -83 -259 -364 -337 -481 l-51 -76 72 -45 c39 -24 77
-47 84 -51 21 -12 358 603 349 638 -3 12 -18 36 -34 55 l-29 35 -54 -75z"/>
<path d="M3010 1615 c-7 -9 -11 -17 -9 -19 29 -26 155 -96 165 -92 26 10 14
31 -33 60 -117 71 -109 68 -123 51z"/>
<path d="M2910 1524 c-55 -47 -67 -84 -72 -234 -4 -92 -11 -149 -22 -180 -28
-74 -29 -80 -14 -80 8 0 51 18 96 40 147 71 234 187 236 313 l1 60 -85 53
c-47 30 -90 54 -97 54 -6 0 -26 -12 -43 -26z"/>
</g>
</svg>
