<?xml version="1.0" standalone="no"?>
<!DOCTYPE svg PUBLIC "-//W3C//DTD SVG 20010904//EN"
 "http://www.w3.org/TR/2001/REC-SVG-20010904/DTD/svg10.dtd">
<svg version="1.0" xmlns="http://www.w3.org/2000/svg"
 width="500.000000pt" height="500.000000pt" viewBox="0 0 500.000000 500.000000"
 preserveAspectRatio="xMidYMid meet">

<g transform="translate(0.000000,500.000000) scale(0.100000,-0.100000)"
fill="#000000" stroke="none">
<path d="M2424 4698 c-508 -620 -865 -1219 -1100 -1846 -111 -293 -200 -660
-225 -925 -15 -160 -7 -477 16 -602 33 -186 122 -407 228 -565 239 -358 593
-584 1027 -656 134 -22 368 -15 517 15 439 90 817 379 1018 781 45 90 89 200
82 206 -2 2 -20 -37 -41 -86 -21 -50 -69 -137 -107 -195 -190 -288 -483 -486
-831 -562 -101 -22 -389 -25 -483 -4 -313 66 -568 217 -754 445 -208 254 -302
548 -288 897 19 445 141 903 407 1529 128 302 493 1012 510 993 4 -4 19 -43
35 -86 40 -113 149 -324 238 -460 152 -232 300 -413 672 -822 264 -289 396
-446 479 -565 101 -145 103 -136 3 15 -78 117 -167 238 -344 463 -547 696
-752 1064 -848 1522 -24 113 -27 152 -32 413 -3 158 -9 287 -13 287 -5 0 -79
-87 -166 -192z"/>
<path d="M2578 2818 c-24 -20 -38 -72 -53 -201 -8 -65 -19 -125 -26 -133 -6
-7 -29 -19 -50 -24 -53 -15 -92 -3 -252 76 -100 50 -140 64 -167 62 -33 -3
-35 -6 -38 -40 -2 -27 13 -79 57 -190 79 -201 79 -202 46 -224 -24 -16 -35
-16 -123 -4 -171 22 -207 23 -220 8 -16 -20 5 -48 66 -90 96 -65 181 -140 196
-172 27 -57 9 -87 -109 -189 -178 -152 -168 -194 50 -208 88 -5 133 -13 157
-26 l33 -18 -61 -5 c-81 -7 -124 -40 -145 -114 -8 -30 -7 -48 4 -82 l14 -43
-46 -17 c-96 -37 -171 -141 -157 -218 4 -19 21 -48 38 -65 35 -34 122 -71 168
-71 47 0 60 -9 60 -44 0 -79 92 -196 196 -249 74 -37 129 -49 225 -48 96 1
172 20 238 58 42 24 44 25 54 7 6 -11 35 -44 64 -75 76 -80 152 -113 258 -114
72 0 86 3 135 31 64 37 114 103 124 164 l7 42 52 -6 c178 -22 372 104 411 268
13 54 8 171 -10 217 -41 105 -122 184 -221 216 -47 15 -51 18 -41 36 6 12 8
49 6 89 -4 46 -2 68 6 68 6 0 44 5 85 10 131 17 133 40 12 164 -49 50 -93 100
-99 111 -16 31 7 71 78 140 126 123 118 159 -44 199 -162 40 -194 96 -128 224
32 61 72 170 72 196 0 25 -30 46 -66 46 -39 0 -105 -31 -203 -95 -87 -57 -106
-62 -124 -33 -8 13 -22 64 -32 115 -18 98 -44 153 -72 153 -9 0 -53 -38 -96
-85 -44 -47 -88 -85 -98 -85 -24 0 -50 38 -102 151 -24 52 -50 99 -58 105 -24
20 -54 25 -71 12z m409 -351 c116 -40 200 -93 289 -181 137 -137 193 -265 202
-456 3 -70 0 -137 -7 -172 l-12 -57 -68 69 c-96 98 -173 134 -298 138 -86 4
-98 2 -157 -26 -69 -32 -136 -93 -156 -142 -15 -36 -20 -37 -73 -6 -159 93
-337 86 -434 -16 -33 -34 -83 -130 -83 -160 0 -36 -20 -27 -44 19 -74 148 -93
347 -47 510 68 243 280 440 535 499 93 21 262 12 353 -19z m237 -773 c78 -38
177 -143 205 -218 25 -68 27 -123 5 -170 -23 -47 -14 -62 46 -75 94 -20 162
-69 203 -146 18 -32 22 -57 22 -130 0 -81 -3 -95 -28 -138 -35 -59 -105 -111
-178 -131 -71 -20 -106 -20 -184 1 -54 14 -66 15 -80 3 -16 -14 -16 -17 0 -91
5 -26 -31 -95 -61 -116 -122 -85 -280 -32 -395 135 -23 33 -36 42 -58 42 -16
0 -34 -6 -40 -14 -6 -7 -39 -26 -74 -42 -80 -36 -205 -45 -289 -20 -72 21
-145 70 -183 124 -25 37 -30 53 -31 106 0 76 -6 86 -48 86 -49 0 -147 20 -179
36 -92 48 -23 168 120 210 61 18 64 26 36 105 -17 47 -17 49 3 76 31 42 83 43
125 4 55 -53 82 -39 99 50 32 168 97 239 218 239 72 0 141 -24 226 -80 103
-67 128 -65 142 11 29 153 215 223 378 143z"/>
<path d="M2372 2049 c-55 -27 -101 -91 -82 -114 18 -22 33 -18 52 14 49 87
168 87 216 0 18 -32 54 -37 60 -8 4 24 -40 82 -83 106 -51 29 -108 29 -163 2z"/>
<path d="M3025 2047 c-39 -22 -85 -78 -85 -102 0 -7 7 -16 16 -19 11 -4 30 8
58 38 51 54 91 65 144 39 20 -10 46 -32 57 -50 21 -34 52 -43 61 -18 4 9 -6
34 -20 56 -50 75 -153 100 -231 56z"/>
<path d="M2146 1907 c-11 -8 -17 -23 -14 -37 7 -54 108 -49 108 4 0 41 -57 60
-94 33z"/>
<path d="M3326 1904 c-43 -43 17 -94 75 -64 11 6 19 21 19 35 0 41 -63 61 -94
29z"/>
<path d="M2693 1903 c-39 -14 11 -89 67 -102 67 -15 140 28 140 81 0 34 -30
34 -57 -1 -30 -38 -73 -42 -100 -8 -22 28 -34 36 -50 30z"/>
<path d="M4021 1234 c0 -11 3 -14 6 -6 3 7 2 16 -1 19 -3 4 -6 -2 -5 -13z"/>
<path d="M4011 1194 c0 -11 3 -14 6 -6 3 7 2 16 -1 19 -3 4 -6 -2 -5 -13z"/>
</g>
</svg>
